<svg xmlns="http://www.w3.org/2000/svg" width="640" height="690" viewBox="0 0 640 690" font-family="DejaVu Sans">
<rect x="0" y="0" width="640" height="690" fill="#FFFFFF"/>
<rect x="30" y="30" width="90" height="90" rx="6" fill="#1F5FBF" stroke="#333333" stroke-width="1"/>
<text x="36" y="46" font-size="11" font-weight="bold" fill="#FFFFFF">#1</text>
<text x="36" y="62" font-size="9" fill="#FFFFFF">Die Hard</text>
<rect x="128" y="30" width="90" height="90" rx="6" fill="#1F5FBF" stroke="#333333" stroke-width="1"/>
<text x="134" y="46" font-size="11" font-weight="bold" fill="#FFFFFF">#2</text>
<text x="134" y="62" font-size="9" fill="#FFFFFF">Paths of</text>
<text x="134" y="74" font-size="9" fill="#FFFFFF">Glory</text>
<rect x="226" y="30" width="90" height="90" rx="6" fill="#1F5FBF" stroke="#333333" stroke-width="1"/>
<text x="232" y="46" font-size="11" font-weight="bold" fill="#FFFFFF">#3</text>
<text x="232" y="62" font-size="9" fill="#FFFFFF">Aliens</text>
<rect x="324" y="30" width="90" height="90" rx="6" fill="#1F5FBF" stroke="#333333" stroke-width="1"/>
<text x="330" y="46" font-size="11" font-weight="bold" fill="#FFFFFF">#4</text>
<text x="330" y="62" font-size="9" fill="#FFFFFF">Mad Max</text>
<rect x="422" y="30" width="90" height="90" rx="6" fill="#1F5FBF" stroke="#333333" stroke-width="1"/>
<text x="428" y="46" font-size="11" font-weight="bold" fill="#FFFFFF">#5</text>
<text x="428" y="62" font-size="9" fill="#FFFFFF">Alien</text>
<rect x="520" y="30" width="90" height="90" rx="6" fill="#1F5FBF" stroke="#333333" stroke-width="1"/>
<text x="526" y="46" font-size="11" font-weight="bold" fill="#FFFFFF">#6</text>
<text x="526" y="62" font-size="9" fill="#FFFFFF">Apocalypse</text>
<text x="526" y="74" font-size="9" fill="#FFFFFF">Now</text>
<rect x="30" y="128" width="90" height="90" rx="6" fill="#1F5FBF" stroke="#333333" stroke-width="1"/>
<text x="36" y="144" font-size="11" font-weight="bold" fill="#FFFFFF">#7</text>
<text x="36" y="160" font-size="9" fill="#FFFFFF">Escape from</text>
<text x="36" y="172" font-size="9" fill="#FFFFFF">Alcatraz</text>
<rect x="128" y="128" width="90" height="90" rx="6" fill="#1F5FBF" stroke="#333333" stroke-width="1"/>
<text x="134" y="144" font-size="11" font-weight="bold" fill="#FFFFFF">#8</text>
<text x="134" y="160" font-size="9" fill="#FFFFFF">The Goonies</text>
<rect x="226" y="128" width="90" height="90" rx="6" fill="#1F5FBF" stroke="#333333" stroke-width="1"/>
<text x="232" y="144" font-size="11" font-weight="bold" fill="#FFFFFF">#9</text>
<text x="232" y="160" font-size="9" fill="#FFFFFF">Spartacus</text>
<rect x="324" y="128" width="90" height="90" rx="6" fill="#1F5FBF" stroke="#333333" stroke-width="1"/>
<text x="330" y="144" font-size="11" font-weight="bold" fill="#FFFFFF">#10</text>
<text x="330" y="160" font-size="9" fill="#FFFFFF">Mission:</text>
<text x="330" y="172" font-size="9" fill="#FFFFFF">Impossible</text>
<rect x="422" y="128" width="90" height="90" rx="6" fill="#1F5FBF" stroke="#333333" stroke-width="1"/>
<text x="428" y="144" font-size="11" font-weight="bold" fill="#FFFFFF">#11</text>
<text x="428" y="160" font-size="9" fill="#FFFFFF">Godzilla</text>
<rect x="520" y="128" width="90" height="90" rx="6" fill="#1F5FBF" stroke="#333333" stroke-width="1"/>
<text x="526" y="144" font-size="11" font-weight="bold" fill="#FFFFFF">#12</text>
<text x="526" y="160" font-size="9" fill="#FFFFFF">Life of Pi</text>
<rect x="30" y="226" width="90" height="90" rx="6" fill="#1F5FBF" stroke="#333333" stroke-width="1"/>
<text x="36" y="242" font-size="11" font-weight="bold" fill="#FFFFFF">#13</text>
<text x="36" y="258" font-size="9" fill="#FFFFFF">Leon: The</text>
<text x="36" y="270" font-size="9" fill="#FFFFFF">Professional</text>
<rect x="128" y="226" width="90" height="90" rx="6" fill="#1F5FBF" stroke="#333333" stroke-width="1"/>
<text x="134" y="242" font-size="11" font-weight="bold" fill="#FFFFFF">#14</text>
<text x="134" y="258" font-size="9" fill="#FFFFFF">The Man in</text>
<text x="134" y="270" font-size="9" fill="#FFFFFF">the Iron Mask</text>
<rect x="226" y="226" width="90" height="90" rx="6" fill="#1F5FBF" stroke="#333333" stroke-width="1"/>
<text x="232" y="242" font-size="11" font-weight="bold" fill="#FFFFFF">#15</text>
<text x="232" y="258" font-size="9" fill="#FFFFFF">The Crimson</text>
<text x="232" y="270" font-size="9" fill="#FFFFFF">Rivers</text>
<rect x="324" y="226" width="90" height="90" rx="6" fill="#1F5FBF" stroke="#333333" stroke-width="1"/>
<text x="330" y="242" font-size="11" font-weight="bold" fill="#FFFFFF">#16</text>
<text x="330" y="258" font-size="9" fill="#FFFFFF">The Visitors</text>
<rect x="422" y="226" width="90" height="90" rx="6" fill="#1F5FBF" stroke="#333333" stroke-width="1"/>
<text x="428" y="242" font-size="11" font-weight="bold" fill="#FFFFFF">#17</text>
<text x="428" y="258" font-size="9" fill="#FFFFFF">A Clockwork</text>
<text x="428" y="270" font-size="9" fill="#FFFFFF">Orange</text>
<rect x="520" y="226" width="90" height="90" rx="6" fill="#1F5FBF" stroke="#333333" stroke-width="1"/>
<text x="526" y="242" font-size="11" font-weight="bold" fill="#FFFFFF">#18</text>
<text x="526" y="258" font-size="9" fill="#FFFFFF">Star Wars: A</text>
<text x="526" y="270" font-size="9" fill="#FFFFFF">New Hope</text>
<rect x="30" y="324" width="90" height="90" rx="6" fill="#1F5FBF" stroke="#333333" stroke-width="1"/>
<text x="36" y="340" font-size="11" font-weight="bold" fill="#FFFFFF">#19</text>
<text x="36" y="356" font-size="9" fill="#FFFFFF">Gravity</text>
<rect x="128" y="324" width="90" height="90" rx="6" fill="#1F5FBF" stroke="#333333" stroke-width="1"/>
<text x="134" y="340" font-size="11" font-weight="bold" fill="#FFFFFF">#20</text>
<text x="134" y="356" font-size="9" fill="#FFFFFF">First Man</text>
<rect x="226" y="324" width="90" height="90" rx="6" fill="#1F5FBF" stroke="#333333" stroke-width="1"/>
<text x="232" y="340" font-size="11" font-weight="bold" fill="#FFFFFF">#21</text>
<text x="232" y="356" font-size="9" fill="#FFFFFF">Solaris</text>
<rect x="324" y="324" width="90" height="90" rx="6" fill="#1F5FBF" stroke="#333333" stroke-width="1"/>
<text x="330" y="340" font-size="11" font-weight="bold" fill="#FFFFFF">#22</text>
<text x="330" y="356" font-size="9" fill="#FFFFFF">Blade Runner</text>
<text x="330" y="368" font-size="9" fill="#FFFFFF">2049</text>
<rect x="422" y="324" width="90" height="90" rx="6" fill="#1F5FBF" stroke="#333333" stroke-width="1"/>
<text x="428" y="340" font-size="11" font-weight="bold" fill="#FFFFFF">#23</text>
<text x="428" y="356" font-size="9" fill="#FFFFFF">Guardians of</text>
<text x="428" y="368" font-size="9" fill="#FFFFFF">the Galaxy</text>
<rect x="520" y="324" width="90" height="90" rx="6" fill="#1F5FBF" stroke="#333333" stroke-width="1"/>
<text x="526" y="340" font-size="11" font-weight="bold" fill="#FFFFFF">#24</text>
<text x="526" y="356" font-size="9" fill="#FFFFFF">Close</text>
<text x="526" y="368" font-size="9" fill="#FFFFFF">Encounters of</text>
<text x="526" y="380" font-size="9" fill="#FFFFFF">the Third</text>
<text x="526" y="392" font-size="9" fill="#FFFFFF">Kind</text>
<rect x="30" y="422" width="90" height="90" rx="6" fill="#1F5FBF" stroke="#333333" stroke-width="1"/>
<text x="36" y="438" font-size="11" font-weight="bold" fill="#FFFFFF">#25</text>
<text x="36" y="454" font-size="9" fill="#FFFFFF">Barry Lyndon</text>
<rect x="128" y="422" width="90" height="90" rx="6" fill="#1F5FBF" stroke="#333333" stroke-width="1"/>
<text x="134" y="438" font-size="11" font-weight="bold" fill="#FFFFFF">#26</text>
<text x="134" y="454" font-size="9" fill="#FFFFFF">Sharknado</text>
<rect x="226" y="422" width="90" height="90" rx="6" fill="#1F5FBF" stroke="#333333" stroke-width="1"/>
<text x="232" y="438" font-size="11" font-weight="bold" fill="#FFFFFF">#27</text>
<text x="232" y="454" font-size="9" fill="#FFFFFF">Terminator 2:</text>
<text x="232" y="466" font-size="9" fill="#FFFFFF">Judgment Day</text>
<rect x="324" y="422" width="90" height="90" rx="6" fill="#1F5FBF" stroke="#333333" stroke-width="1"/>
<text x="330" y="438" font-size="11" font-weight="bold" fill="#FFFFFF">#28</text>
<text x="330" y="454" font-size="9" fill="#FFFFFF">Scream 2</text>
<rect x="422" y="422" width="90" height="90" rx="6" fill="#1F5FBF" stroke="#333333" stroke-width="1"/>
<text x="428" y="438" font-size="11" font-weight="bold" fill="#FFFFFF">#29</text>
<text x="428" y="454" font-size="9" fill="#FFFFFF">The Matrix</text>
<text x="428" y="466" font-size="9" fill="#FFFFFF">Reloaded</text>
<rect x="520" y="422" width="90" height="90" rx="6" fill="#1F5FBF" stroke="#333333" stroke-width="1"/>
<text x="526" y="438" font-size="11" font-weight="bold" fill="#FFFFFF">#30</text>
<text x="526" y="454" font-size="9" fill="#FFFFFF">Toy Story 2</text>
<rect x="30" y="520" width="90" height="90" rx="6" fill="#1F5FBF" stroke="#333333" stroke-width="1"/>
<text x="36" y="536" font-size="11" font-weight="bold" fill="#FFFFFF">#31</text>
<text x="36" y="552" font-size="9" fill="#FFFFFF">Ghostbusters</text>
<text x="36" y="564" font-size="9" fill="#FFFFFF">II</text>
<rect x="128" y="520" width="90" height="90" rx="6" fill="#1F5FBF" stroke="#333333" stroke-width="1"/>
<text x="134" y="536" font-size="11" font-weight="bold" fill="#FFFFFF">#32</text>
<text x="134" y="552" font-size="9" fill="#FFFFFF">Raiders of</text>
<text x="134" y="564" font-size="9" fill="#FFFFFF">the Lost Ark</text>
<rect x="226" y="520" width="90" height="90" rx="6" fill="#1F5FBF" stroke="#333333" stroke-width="1"/>
<text x="232" y="536" font-size="11" font-weight="bold" fill="#FFFFFF">#33</text>
<text x="232" y="552" font-size="9" fill="#FFFFFF">The Shining</text>
<rect x="324" y="520" width="90" height="90" rx="6" fill="#1F5FBF" stroke="#333333" stroke-width="1"/>
<text x="330" y="536" font-size="11" font-weight="bold" fill="#FFFFFF">#34</text>
<text x="330" y="552" font-size="9" fill="#FFFFFF">The Human</text>
<text x="330" y="564" font-size="9" fill="#FFFFFF">Centipede</text>
<text x="330" y="576" font-size="9" fill="#FFFFFF">(First</text>
<text x="330" y="588" font-size="9" fill="#FFFFFF">Sequence)</text>
<rect x="30" y="628" width="14" height="14" fill="#1F5FBF"/>
<text x="50" y="639" font-size="10" fill="#1a1a1a">confirmed</text>
<rect x="134" y="628" width="14" height="14" fill="#E07A1F"/>
<text x="154" y="639" font-size="10" fill="#1a1a1a">probable / uncertain / disputed</text>
<rect x="370" y="628" width="14" height="14" fill="#9A9A9A"/>
<text x="390" y="639" font-size="10" fill="#1a1a1a">unidentified</text>
</svg>